<svg xmlns="http://www.w3.org/2000/svg" width="320" height="180"><rect width="320" height="180" rx="22" fill="#d6c58a"/><path d="M0 0h320v34H0zM0 146h320v34H0zM0 0h34v180H0zM286 0h34v180H286zM68 34h34v78H68zM136 68h116v34H136zM102 112h116v34H102z" fill="#6f8a50" stroke="#425b34" stroke-width="3"/><path d="M22 0q24 30 6 70t20 110M288 0q-20 30-5 65t-17 115" fill="none" stroke="#22c55e" stroke-width="8"/><circle cx="54" cy="52" r="14" fill="#f97316" stroke="#7c2d12" stroke-width="4"/><rect x="224" y="112" width="48" height="26" rx="8" fill="#8b5e34"/><text x="248" y="130" text-anchor="middle" font-family="Arial" font-weight="bold" font-size="13" fill="white">EXIT</text><rect x="112" y="42" width="62" height="25" rx="8" fill="#fef3c7" stroke="#5b4b23" stroke-width="3"/><text x="143" y="59" text-anchor="middle" font-family="Arial" font-weight="bold" font-size="13">WORD</text></svg>